# xmcd
#
# Track frame offsets: 
#        150
#        23023
#        40338
#        53630
#        72490
#        91149
#        113076
#        129101
#        147835
#        168038
#        184739
#        202303
#        213990
#        233579
#        249303
#        263229
#        280002
#        296146
#        311635
#        327143
#        341565
#
# Disc length: 4772 seconds
#
# Revision: 0
# Processed by: cddbd v1.4PL0 Copyright (c) Steve Scherf et al.
# Submitted via: ExactAudioCopy v0.95a3
#
DISCID=2e12a215
DTITLE=Александр Новиков - Шансон
DYEAR=2000
DGENRE=Chanson
TTITLE0=Вези меня, извозчик ...
TTITLE1=Помнишь, девочка? ...
TTITLE2=В Екатеринбурге
TTITLE3=Я вышел родом из еврейского квартала
TTITLE4=Город древний
TTITLE5=Гостиничная история
TTITLE6=Городской романс
TTITLE7=Роза
TTITLE8=Шансоньетка
TTITLE9=Уличная красотка
TTITLE10=Девочка-иголочка
TTITLE11=С красавицей в обнимку
TTITLE12=Это не лето
TTITLE13=Бурлак
TTITLE14=Катька
TTITLE15=Ожерелье Магадана
TTITLE16=Женский этап
TTITLE17=О названных городах
TTITLE18=Страна всеобщего вранья
TTITLE19=Ай, по стеночке! ...
TTITLE20=Нина-Ниночка
EXTD=Большая Российская Музыкальная Энциклопедия\nКоллекция ХХ века
EXTT0=
EXTT1=
EXTT2=
EXTT3=
EXTT4=
EXTT5=
EXTT6=
EXTT7=
EXTT8=
EXTT9=
EXTT10=
EXTT11=
EXTT12=
EXTT13=
EXTT14=
EXTT15=
EXTT16=
EXTT17=
EXTT18=
EXTT19=
EXTT20=
PLAYORDER=
